<svg width="223" height="68" viewBox="0 0 223 68" fill="none" xmlns="http://www.w3.org/2000/svg">
<path d="M96.2182 13.7757V35.061H92.5115V25.3797H81.4736V35.061H77.7371V13.7757H81.4736V22.0074H92.5115V13.7757H96.2182Z" fill="#1D1D1B"/>
<path d="M150.682 26.266C149.95 27.2198 149.038 27.9709 147.82 28.5042C149.076 30.5621 150.511 32.973 151.766 35.0685H147.506L144.114 29.2853H137.687V35.0685H133.913V13.7757H144.256C146.423 13.7757 148.448 14.5944 149.913 16.0439C151.31 17.4634 152.185 19.3411 152.185 21.5793C152.185 23.3518 151.661 24.9892 150.682 26.266ZM137.679 25.8379H144.315C145.504 25.8379 146.617 25.3422 147.282 24.5611C148.015 23.7424 148.403 22.6458 148.403 21.5793C148.403 20.5128 148.022 19.4162 147.357 18.7027C146.662 17.8165 145.436 17.2456 144.143 17.2456H137.679V25.8379Z" fill="#1D1D1B"/>
<path d="M114.139 19.7692C115.745 21.4366 116.687 23.7048 116.687 26.1909C116.687 28.6769 115.708 31.1254 113.959 32.8228C112.353 34.4226 110.081 35.3765 107.428 35.3765C104.775 35.3765 102.398 34.3475 100.754 32.7177C99.1103 31.0503 98.1313 28.707 98.1313 26.1909C98.1313 23.6748 99.1775 21.1888 100.964 19.4838C102.57 17.9216 104.767 16.9978 107.428 16.9978C110.088 16.9978 112.495 18.0643 114.139 19.7692ZM103.445 30.3818C104.461 31.4484 105.851 32.0117 107.428 32.0117C109.005 32.0117 110.29 31.4409 111.269 30.4494C112.315 29.458 112.913 27.9334 112.913 26.1909C112.913 24.4484 112.323 22.8937 111.269 21.8948C110.29 20.9409 108.93 20.3701 107.428 20.3701C105.926 20.3701 104.424 20.9409 103.407 22.0375C102.466 22.9988 101.868 24.4484 101.868 26.1909C101.868 27.9334 102.458 29.3829 103.437 30.3743" fill="#1D1D1B"/>
<path d="M115.985 17.3207H132.194V20.693H125.946V35.061H122.21V20.693H115.985V17.3207Z" fill="#1D1D1B"/>
<path d="M169.051 19.7692C170.658 21.4366 171.6 23.7048 171.6 26.1909C171.6 28.6769 170.621 31.1254 168.872 32.8228C167.265 34.4226 164.993 35.3765 162.341 35.3765C159.688 35.3765 157.311 34.3475 155.667 32.7177C154.023 31.0503 153.044 28.707 153.044 26.1909C153.044 23.6748 154.09 21.1888 155.876 19.4838C157.483 17.9216 159.68 16.9978 162.341 16.9978C165.001 16.9978 167.407 18.0643 169.051 19.7692ZM158.365 30.3818C159.374 31.4484 160.779 32.0117 162.348 32.0117C163.917 32.0117 165.21 31.4409 166.189 30.4494C167.235 29.458 167.833 27.9334 167.833 26.1909C167.833 24.4484 167.243 22.8937 166.189 21.8948C165.21 20.9409 163.85 20.3701 162.348 20.3701C160.846 20.3701 159.344 20.9409 158.327 22.0375C157.386 22.9988 156.788 24.4484 156.788 26.1909C156.788 27.9334 157.378 29.3829 158.357 30.3743" fill="#1D1D1B"/>
<path d="M178.311 30.3067C179.327 31.4108 180.754 31.9741 182.331 31.9741C184.289 31.9741 185.791 31.1254 187.323 29.7735L189.632 32.2896C187.465 34.2799 185.231 35.3765 182.331 35.3765C179.641 35.3765 177.369 34.3475 175.725 32.7177C174.051 31.0503 172.997 28.707 172.997 26.1533C172.997 23.5997 174.043 21.3315 175.688 19.6641C177.294 18.0343 179.633 17.0053 182.324 17.0053C185.223 17.0053 187.458 17.9592 189.625 20.0922L187.316 22.6158C185.776 21.1963 184.274 20.4152 182.324 20.4152C180.754 20.4152 179.357 20.986 178.378 21.9774C177.362 23.0063 176.771 24.4634 176.771 26.1608C176.771 27.8583 177.369 29.3529 178.311 30.3142" fill="#1D1D1B"/>
<path d="M195.462 17.3207V24.0653H198.466L203.256 17.3207H207.658L201.649 25.6276L208.076 35.061H203.57L198.578 27.4677H195.462V35.061H191.725V17.3207H195.462Z" fill="#1D1D1B"/>
<path d="M59.8613 16.5622L59.6521 16.3068C61.5652 12.4613 61.199 6.46028 59.4877 3.08797C58.9795 2.08154 58.0603 1.36051 56.9617 1.10515C56.6703 1.03755 56.3788 1 56.0874 1C55.2579 1 54.4657 1.26287 53.8006 1.75858L45.3559 8.07508L45.1093 7.95491C41.5147 6.18989 37.6661 5.28861 33.653 5.28861C29.6399 5.28861 25.7838 6.18238 22.1967 7.95491L21.9501 8.07508L13.4905 1.75858C12.8254 1.26287 12.0332 1 11.2037 1C10.9122 1 10.6133 1.03004 10.3293 1.10515C9.23077 1.36051 8.31157 2.08905 7.8034 3.08797C6.09205 6.46028 5.72587 12.4613 7.63899 16.3068L7.42974 16.5622C2.69177 22.3754 0.0761719 29.7059 0.0761719 37.2166C0.0761719 40.4837 0.561926 43.7208 1.52596 46.8453L3.09532 45.8238L3.23731 46.4547C4.67215 52.6661 7.95286 58.1789 12.7282 62.415L16.3676 60.0491L16.6068 60.1918C21.7558 63.2562 27.6446 64.871 33.6381 64.871C39.6315 64.871 45.5204 63.2562 50.6693 60.1918L50.9085 60.0491L54.5404 62.415C59.3232 58.1789 62.604 52.6661 64.0313 46.4547L64.1733 45.8238L65.7427 46.8453C66.7067 43.7208 67.1925 40.4837 67.1925 37.2166C67.1925 29.7134 64.5843 22.3754 59.8389 16.5622M54.9066 5.15342C55.5942 4.61265 56.618 4.90556 56.8945 5.73925C57.2457 6.78324 57.597 8.2328 57.597 9.84009C57.597 10.9442 57.5073 12.0482 57.2308 13.1298C56.7899 14.8572 56.0874 15.9162 55.1757 16.6448C53.2252 13.9935 52.007 12.6416 48.674 10.0654L54.9066 5.14591V5.15342ZM23.7885 11.1695C26.1649 10.0053 28.7133 9.27679 31.3662 9.0064L31.8594 8.95383V13.1448L27.1065 11.868L26.5162 14.0911L31.8669 15.5332V19.5064L19.7828 16.2542L19.1925 18.4849L31.8744 21.8948V23.9902H35.4466V21.8948L48.1285 18.4849L47.5381 16.2542L35.4466 19.5064V15.5332L40.7973 14.0911L40.2069 11.868L35.454 13.1448V8.95383L35.9547 9.0064C38.6077 9.27679 41.156 10.0053 43.5325 11.1695C47.2093 12.9721 50.3331 15.751 52.5675 19.2059C54.0472 21.4892 55.086 23.9827 55.6614 26.634L55.7062 26.8218L55.6016 26.9795C53.5465 30.0439 50.5199 32.3346 47.0598 33.4763L47.4111 35.782C50.4302 34.8582 53.1803 33.1608 55.4073 30.8625L56.1696 30.0739L56.1845 31.178V31.4409C56.1845 32.2295 56.1023 33.1082 55.9379 34.0546L55.908 34.2048L55.7959 34.3099C53.4942 36.488 50.8338 38.1329 47.8893 39.2069L48.2481 41.5277C50.1462 40.8743 51.9697 39.988 53.6736 38.8915L54.8693 38.1179L54.3387 39.4397C53.143 42.414 51.469 45.3657 49.4961 47.9794L48.7189 49.0159L48.689 47.7165C48.5993 43.8335 45.894 40.4687 42.2621 39.7101L41.9482 39.6425L40.6254 29.7434L42.2322 29.3078L42.5834 29.9537C42.7927 30.3443 43.0991 30.6823 43.4727 30.9076C46.2901 32.5825 49.1971 30.5696 49.1971 27.8808L49.1448 27.4377L49.5708 27.325C50.2733 27.1372 50.8637 26.6791 51.2373 26.0407C51.6035 25.4023 51.7006 24.6587 51.5138 23.9452L51.2971 23.1415L36.5825 27.0997L38.3835 40.326H28.9374L30.7385 27.0997L16.0239 23.1415L15.8071 23.9452C15.6203 24.6512 15.7175 25.3947 16.0836 26.0407C16.4498 26.6791 17.0402 27.1372 17.7502 27.325L18.1761 27.4377L18.1238 27.8808C18.1238 30.5621 21.0309 32.5825 23.8482 30.9076C24.2294 30.6823 24.5283 30.3443 24.7375 29.9537L25.0888 29.3078L26.6955 29.7434L25.3728 39.6425L25.0589 39.7101C21.4269 40.4687 18.7291 43.841 18.632 47.7165L18.6021 49.0159L17.8249 47.9794C15.8594 45.3657 14.1855 42.414 12.9823 39.4397L12.4517 38.1179L13.6474 38.8915C15.3513 39.988 17.1747 40.8818 19.0729 41.5277L19.4316 39.2069C16.4872 38.1404 13.8268 36.4956 11.525 34.3099L11.4129 34.2048L11.3905 34.0546C11.2261 33.1082 11.1439 32.237 11.1439 31.4409V31.178L11.1588 30.0739L11.9211 30.8625C14.1406 33.1608 16.8982 34.8582 19.9174 35.782L20.2686 33.4763C16.8085 32.3346 13.7819 30.0439 11.7268 26.9795L11.6147 26.8218L11.6521 26.634C12.2275 23.9902 13.2663 21.4892 14.7459 19.2059C16.9804 15.751 20.1042 12.9721 23.781 11.1695M10.4041 5.73925C10.6806 4.90556 11.7044 4.61265 12.3919 5.15342L18.6245 10.0729C15.2915 12.6566 14.0808 14.001 12.1229 16.6523C11.2112 15.9238 10.5087 14.8647 10.0678 13.1373C9.79126 12.0557 9.70158 10.9442 9.70158 9.8476C9.70158 8.24031 10.0603 6.78324 10.4041 5.74676M20.291 58.1189C18.7516 57.3453 17.2868 56.4515 15.9267 55.445L12.8403 57.4504L12.5862 57.1575C8.39378 52.3056 6.06963 46.1243 6.03227 39.7252L3.90989 41.0996L3.82769 40.3711C3.71559 39.3196 3.65581 38.2531 3.65581 37.2091C3.65581 31.1104 5.53157 25.2596 9.07384 20.31L9.85104 20.7606C8.33399 24.1329 7.57173 27.7231 7.57173 31.4333C7.57173 39.5374 13.0197 48.768 20.844 57.4279L20.291 58.1189ZM20.8216 47.9118C20.8216 45.4333 22.249 43.2327 24.461 42.3013L24.9916 42.076L25.0813 42.6468C25.2158 43.503 25.7389 44.2541 26.4937 44.6597L32.4498 47.8743V48.1597C32.3153 51.4193 29.767 53.9729 26.6357 53.9729C23.5045 53.9729 20.8216 51.2541 20.8216 47.9193M44.2948 56.4214C41.5895 59.4933 37.7109 61.2583 33.6455 61.2583C29.5801 61.2583 25.7016 59.4933 22.9963 56.4214L22.7646 56.1586L23.213 55.5126L23.6016 55.6854C23.7959 55.7755 23.9977 55.8581 24.207 55.9257C27.7044 57.0598 31.3214 55.6328 33.2719 52.6285L33.653 52.0427L34.0341 52.6285C35.9846 55.6328 39.5942 57.0674 43.0991 55.9257C43.3008 55.8581 43.5026 55.7755 43.7044 55.6854L44.1005 55.5126L44.5488 56.1586L44.3172 56.4214H44.2948ZM40.6553 53.9729C37.5241 53.9729 34.9757 51.4193 34.8487 48.1597V47.8743L40.7973 44.6597C41.5521 44.2541 42.0752 43.503 42.2098 42.6468L42.2994 42.076L42.83 42.3013C45.0421 43.2327 46.4694 45.4333 46.4694 47.9118C46.4694 51.2541 43.8613 53.9654 40.6553 53.9654M63.4634 40.3786L63.3812 41.1071L61.2588 39.7327C61.2214 46.1243 58.8973 52.3056 54.7048 57.165L54.4508 57.4579L51.3644 55.4526C50.0042 56.4515 48.5395 57.3528 47 58.1264L46.447 57.4354C54.2789 48.7755 59.7268 39.5449 59.7268 31.4409C59.7268 27.7306 58.9571 24.1405 57.4475 20.7682L58.2247 20.3175C61.767 25.2746 63.6427 31.1179 63.6427 37.2166C63.6427 38.2606 63.5829 39.3271 63.4708 40.3786" fill="#1D1D1B"/>
<path d="M78.2831 49.1426V52.0356H79.9825C80.6024 52.0356 81.0514 51.9134 81.34 51.6587C81.6285 51.4041 81.7675 51.0475 81.7675 50.5891C81.7675 50.1307 81.6178 49.7844 81.3293 49.5297C81.03 49.275 80.5917 49.1426 79.9825 49.1426H78.2831ZM77.5456 45.6078H82.0026V46.2597H78.2938V48.5008H79.9932C80.8376 48.5008 81.4789 48.6842 81.9064 49.0611C82.334 49.438 82.5477 49.9474 82.5477 50.5891C82.5477 51.2309 82.3339 51.7504 81.9171 52.1273C81.5003 52.494 80.859 52.6876 80.0039 52.6876H77.567V45.6078H77.5456Z" fill="#3C3C3B"/>
<path d="M85.4443 49.978H88.1805L87.4324 48.0323L86.8124 46.4126L86.1925 48.0323L85.4443 49.978ZM85.1878 50.6299L84.4076 52.6775H83.6487L86.4063 45.6078H87.2507L90.0082 52.6775H89.228L88.4371 50.6299H85.1878Z" fill="#3C3C3B"/>
<path d="M93.6637 52.7487C92.8514 52.7487 92.2314 52.5552 91.7932 52.1579C91.3657 51.7606 91.1198 51.2105 91.0557 50.5076H91.8253C91.8787 51.017 92.0604 51.4143 92.3597 51.6791C92.659 51.944 93.0865 52.0866 93.6637 52.0866C94.2408 52.0866 94.6684 51.9643 94.957 51.7097C95.2456 51.455 95.3952 51.129 95.3952 50.7114C95.3952 50.2937 95.2562 49.9983 94.957 49.7538C94.6684 49.5093 94.2302 49.3769 93.6637 49.3769H92.7658V48.7148H93.6637C94.1874 48.7148 94.5828 48.6027 94.8394 48.3684C95.0959 48.1443 95.2349 47.8387 95.2349 47.472C95.2349 47.1053 95.1066 46.7793 94.8394 46.5552C94.5828 46.3311 94.1874 46.2088 93.6637 46.2088C93.1399 46.2088 92.7445 46.3311 92.4772 46.5654C92.21 46.7997 92.0497 47.146 91.9856 47.584H91.2267C91.2802 46.9525 91.5153 46.4533 91.9215 46.0866C92.3276 45.7199 92.9155 45.5365 93.6637 45.5365C94.4119 45.5365 94.9997 45.7198 95.3952 46.0764C95.7907 46.4329 95.9937 46.9015 95.9937 47.472C95.9937 47.8183 95.9082 48.1239 95.7265 48.3888C95.5448 48.6537 95.2883 48.8676 94.957 49.0204C95.3631 49.1732 95.6624 49.3973 95.8548 49.6927C96.0472 49.9881 96.1541 50.3243 96.1541 50.7114C96.1541 51.017 96.1006 51.292 95.9937 51.5365C95.8869 51.781 95.7265 51.9949 95.5127 52.1783C95.299 52.3616 95.0425 52.4941 94.7325 52.5959C94.4226 52.6978 94.0698 52.7487 93.6637 52.7487Z" fill="#3C3C3B"/>
<path d="M99.1789 49.978H101.915L101.167 48.0323L100.547 46.4126L99.9271 48.0323L99.1789 49.978ZM98.9224 50.6299L98.1421 52.6775H97.3832L100.141 45.6078H100.985L103.743 52.6775H102.963L102.172 50.6299H98.9224Z" fill="#3C3C3B"/>
<path d="M104.748 52.0865H104.961C105.132 52.0865 105.282 52.0458 105.432 51.9744C105.571 51.9031 105.699 51.7503 105.806 51.5364C105.913 51.3123 105.987 51.0067 106.052 50.6094C106.105 50.2121 106.137 49.6926 106.137 49.0406V45.6077H110.808V52.6773H110.07V46.2495H106.885V49.0406C106.885 49.8047 106.842 50.4261 106.757 50.9049C106.671 51.3836 106.554 51.7605 106.394 52.0356C106.233 52.3106 106.03 52.494 105.795 52.5959C105.56 52.6977 105.282 52.7486 104.983 52.7486H104.769V52.0763L104.748 52.0865Z" fill="#3C3C3B"/>
<path d="M113.865 48.9389V52.0356H115.457C116.12 52.0356 116.601 51.9032 116.9 51.6384C117.199 51.3735 117.349 50.9864 117.349 50.4873C117.349 49.9881 117.199 49.601 116.9 49.3362C116.601 49.0713 116.12 48.9389 115.468 48.9389H113.865ZM113.127 45.6078H113.865V48.2971H115.457C116.355 48.2971 117.018 48.4906 117.456 48.8777C117.894 49.2648 118.108 49.8048 118.108 50.4873C118.108 51.1698 117.894 51.73 117.467 52.107C117.039 52.4839 116.366 52.6774 115.457 52.6774H113.127V45.5976V45.6078Z" fill="#3C3C3B"/>
<path d="M118.375 45.6078H123.997V46.2496H121.55V52.6775H120.812V46.2496H118.375V45.6078Z" fill="#3C3C3B"/>
<path d="M128.027 52.0866C128.358 52.0866 128.668 52.0255 128.946 51.9134C129.235 51.8014 129.47 51.6282 129.673 51.4041C129.876 51.18 130.036 50.9049 130.154 50.579C130.271 50.253 130.325 49.8761 130.325 49.4584V48.8166C130.325 48.4092 130.261 48.0322 130.143 47.7063C130.026 47.3803 129.855 47.1053 129.651 46.8811C129.448 46.657 129.203 46.4839 128.925 46.3718C128.647 46.2496 128.337 46.1987 128.016 46.1987C127.695 46.1987 127.375 46.2598 127.097 46.3718C126.808 46.4839 126.573 46.657 126.37 46.8811C126.167 47.1053 126.007 47.3803 125.889 47.7063C125.772 48.0322 125.718 48.4092 125.718 48.8268V49.4686C125.718 49.8863 125.782 50.253 125.9 50.579C126.017 50.9049 126.188 51.18 126.391 51.3939C126.595 51.618 126.84 51.7912 127.118 51.9032C127.396 52.0255 127.706 52.0764 128.027 52.0764M128.027 52.7487C127.578 52.7487 127.172 52.6774 126.798 52.5246C126.424 52.3718 126.092 52.1579 125.825 51.8727C125.547 51.5874 125.333 51.2513 125.184 50.8438C125.034 50.4363 124.959 49.9779 124.959 49.4584V48.8166C124.959 48.3073 125.034 47.8489 125.194 47.4414C125.355 47.034 125.568 46.6978 125.836 46.4126C126.114 46.1273 126.434 45.9134 126.808 45.7606C127.182 45.6078 127.589 45.5365 128.037 45.5365C128.486 45.5365 128.893 45.6078 129.267 45.7606C129.641 45.9032 129.972 46.1273 130.239 46.4024C130.507 46.6774 130.731 47.034 130.881 47.4414C131.03 47.8489 131.105 48.3073 131.105 48.8166V49.4584C131.105 49.9677 131.03 50.4262 130.87 50.8336C130.71 51.2411 130.496 51.5773 130.229 51.8625C129.951 52.1477 129.63 52.3616 129.256 52.5144C128.882 52.6672 128.476 52.7385 128.027 52.7385" fill="#3C3C3B"/>
<path d="M133.905 49.3667V52.0356H135.658C136.278 52.0356 136.727 51.9236 136.984 51.6995C137.251 51.4754 137.379 51.1392 137.379 50.7012C137.379 50.2631 137.251 49.927 136.984 49.7029C136.716 49.4788 136.278 49.3667 135.658 49.3667H133.905ZM133.905 46.2496V48.7148H135.445C136.064 48.7148 136.513 48.6027 136.77 48.3888C137.037 48.1749 137.165 47.8693 137.165 47.4822C137.165 47.0951 137.037 46.7997 136.77 46.5755C136.503 46.3616 136.064 46.2496 135.445 46.2496H133.905ZM133.168 45.6078H135.445C136.321 45.6078 136.952 45.7708 137.347 46.1069C137.743 46.4431 137.935 46.9015 137.935 47.4822C137.935 47.8183 137.849 48.1137 137.689 48.3786C137.529 48.6333 137.272 48.8472 136.92 49C137.347 49.1426 137.657 49.3667 137.849 49.6519C138.042 49.9372 138.149 50.2835 138.149 50.691C138.149 51.3327 137.956 51.8217 137.561 52.1579C137.165 52.494 136.535 52.6672 135.658 52.6672H133.168V45.5874V45.6078Z" fill="#3C3C3B"/>
<path d="M146.315 45.6078H147.063V52.6876H146.315V45.6078ZM140.906 48.9389V52.0356H142.445C143.108 52.0356 143.589 51.9032 143.888 51.6384C144.188 51.3735 144.337 50.9864 144.337 50.4873C144.337 49.9881 144.188 49.601 143.888 49.3362C143.589 49.0713 143.108 48.9389 142.445 48.9389H140.906ZM140.169 45.6078H140.906V48.2971H142.445C143.343 48.2971 144.006 48.4906 144.444 48.8777C144.882 49.2648 145.096 49.8048 145.096 50.4873C145.096 51.1698 144.882 51.73 144.455 52.107C144.027 52.4839 143.354 52.6774 142.445 52.6774H140.169V45.5976V45.6078Z" fill="#3C3C3B"/>
<path d="M152.204 44.966C151.702 44.966 151.317 44.8438 151.06 44.5993C150.804 44.3548 150.665 44.0187 150.665 43.5806H151.359C151.359 43.8862 151.424 44.1002 151.563 44.2428C151.702 44.3752 151.905 44.4465 152.193 44.4465C152.492 44.4465 152.706 44.3752 152.845 44.2428C152.984 44.1104 153.048 43.8862 153.048 43.5806H153.732C153.732 44.0187 153.604 44.3548 153.337 44.5993C153.08 44.8438 152.696 44.966 152.193 44.966M154.288 46.3514L153.658 47.421L150.408 52.6774H149.393V45.6078H150.141V51.9236L150.75 50.8642L154 45.6078H155.015V52.6774H154.288V46.3514Z" fill="#3C3C3B"/>
<path d="M80.2283 62.7827L77.5456 57.73H78.3792L80.6238 62.0187L82.5798 57.73H83.3814L80.1001 64.7997H79.2985L80.2283 62.7827Z" fill="#3C3C3B"/>
<path d="M85.4265 57.73H91.0486V58.3718H88.6116V64.7997H87.8635V58.3718H85.4265V57.73Z" fill="#3C3C3B"/>
<path d="M93.0938 57.73H97.5508V58.3718H93.8313V60.837H96.9095V61.489H93.8313V64.1579H97.5508V64.7997H93.0938V57.73Z" fill="#3C3C3B"/>
<path d="M104.374 58.3718H100.344V64.7997H99.5958V57.73H105.111V64.7997H104.374V58.3718Z" fill="#3C3C3B"/>
<path d="M107.156 64.2088H107.37C107.541 64.2088 107.691 64.1681 107.84 64.0968C107.979 64.0255 108.107 63.8727 108.214 63.6587C108.321 63.4346 108.396 63.129 108.46 62.7317C108.514 62.3345 108.546 61.815 108.546 61.163V57.73H113.217V64.7997H112.479V58.3718H109.294V61.163C109.294 61.927 109.251 62.5484 109.166 63.0272C109.08 63.5059 108.963 63.8828 108.802 64.1579C108.642 64.4329 108.439 64.6163 108.204 64.7182C107.969 64.82 107.691 64.871 107.391 64.871H107.178V64.1986L107.156 64.2088Z" fill="#3C3C3B"/>
<path d="M120.146 58.4737L119.526 59.5433L116.277 64.7997H115.262V57.73H115.999V64.0458L116.619 62.9864L119.858 57.73H120.884V64.7997H120.146V58.4737Z" fill="#3C3C3B"/>
<path d="M122.929 57.73H128.551V58.3718H126.114V64.7997H125.376V58.3718H122.929V57.73Z" fill="#3C3C3B"/>
<path d="M130.596 57.73H135.053V58.3718H131.344V60.837H134.412V61.489H131.344V64.1579H135.053V64.7997H130.596V57.73Z" fill="#3C3C3B"/>
<path d="M137.098 64.2088H137.312C137.483 64.2088 137.633 64.1681 137.782 64.0968C137.921 64.0255 138.049 63.8727 138.156 63.6587C138.263 63.4346 138.338 63.129 138.402 62.7317C138.456 62.3345 138.488 61.815 138.488 61.163V57.73H143.158V64.7997H142.421V58.3718H139.236V61.163C139.236 61.927 139.193 62.5484 139.108 63.0272C139.022 63.5059 138.904 63.8828 138.744 64.1579C138.584 64.4329 138.381 64.6163 138.146 64.7182C137.91 64.82 137.633 64.871 137.333 64.871H137.119V64.1986L137.098 64.2088Z" fill="#3C3C3B"/>
<path d="M145.941 61.0612V64.1579H147.534C148.196 64.1579 148.677 64.0255 148.977 63.7607C149.276 63.4958 149.425 63.1087 149.425 62.6096C149.425 62.1104 149.276 61.7233 148.977 61.4584C148.677 61.1936 148.196 61.0612 147.544 61.0612H145.941ZM145.204 57.7301H145.941V60.4194H147.534C148.431 60.4194 149.094 60.613 149.532 61.0001C149.971 61.3872 150.184 61.927 150.184 62.6096C150.184 63.2921 149.971 63.8523 149.543 64.2292C149.116 64.6062 148.442 64.7997 147.534 64.7997H145.204V57.7199V57.7301Z" fill="#3C3C3B"/>
</svg>
