<svg width="50" height="50" viewBox="0 0 50 50" fill="none" xmlns="http://www.w3.org/2000/svg">
<path d="M41.0457 21.0181V44.8857H45.0229C47.2087 44.8857 49 43.094 49 40.9078V21.0181H41.0457ZM41.0457 5.11426H35.08V9.09219H31.1029V5.11426H27.1257V9.09219H23.1486V5.11426H19.1714V9.09219H15.1943V5.11426H9.22858V7.10322L13.2057 13.9936V44.8857H21.16V32.9519C21.16 30.7577 22.9434 28.974 25.1371 28.974C27.3309 28.974 29.1143 30.7577 29.1143 32.9519V44.8857H37.0686V13.9936L41.0457 7.10322V5.11426ZM27.1257 21.0181H23.1486V17.0402H27.1257V21.0181Z" fill="#FF9500"/>
<path d="M9.22858 21.5713V44.8856H5.11429C2.85306 44.8856 1 43.1355 1 40.9999V21.5713H9.22858Z" fill="#FF9500"/>
</svg>
