<svg width="50" height="50" viewBox="0 0 50 50" fill="none" xmlns="http://www.w3.org/2000/svg">
<path d="M46.6523 34.8541H3.34766C2.60339 34.8541 2 35.4785 2 36.2486V38.3868C2 38.9775 2.35973 39.5043 2.89799 39.7015C3.32142 39.8565 13.4019 43.5 25 43.5C36.5981 43.5 46.6787 39.8565 47.102 39.7015C47.3646 39.6053 47.592 39.4272 47.7528 39.1918C47.9136 38.9563 48 38.6751 48 38.3868V36.2486C48 35.4785 47.3966 34.8541 46.6523 34.8541ZM18.7109 9.81029C15.9673 10.7847 13.4527 12.4 11.3412 14.5848C7.69286 18.36 5.68359 23.3794 5.68359 28.7183V32.0651H18.7109V9.81029ZM44.3164 28.7183C44.3164 23.3793 42.3071 18.36 38.6588 14.5848C36.5473 12.4 34.0327 10.7847 31.2891 9.81029V32.0652H44.3164V28.7183ZM28.5938 8.02179C28.5938 7.31097 28.0771 6.71394 27.3942 6.63575C25.8028 6.45475 24.1971 6.45475 22.6057 6.63575C21.9229 6.71394 21.4062 7.31106 21.4062 8.02179V32.0651H28.5938V8.02179Z" fill="#FF9500"/>
</svg>
