<svg width="50" height="50" viewBox="0 0 50 50" fill="none" xmlns="http://www.w3.org/2000/svg">
<path d="M47.4703 36.3339V25.1445C37.9998 26.6553 32.4998 27.6553 25.0915 28.9705C16.9998 27.6553 10.4998 26.1553 2.71265 25.1445V36.3339C2.71265 38.3912 4.38514 40.0637 6.44245 40.0637H43.7331C45.7904 40.0637 47.4629 38.3912 47.4629 36.3339" fill="#FF9500"/>
<rect x="2.71265" y="42.7764" width="44.7576" height="4.06887" rx="1.35629" fill="#FF9500"/>
<path d="M15.2827 10.42L16.5635 15.2704L3.7074 7.40531L2.60028 9.21498L15.4678 17.0871L10.5329 18.1498L11.087 20.2481L18.9049 18.5917L19.464 17.6778L17.425 9.95629L15.2827 10.42Z" fill="#FF9500"/>
<path d="M34.7175 10.42L33.4366 15.2704L46.2928 7.40531L47.3999 9.21498L34.5324 17.0871L39.4673 18.1498L38.9132 20.2481L31.0953 18.5917L30.5362 17.6778L32.5752 9.95629L34.7175 10.42Z" fill="#FF9500"/>
</svg>
