<svg width="50" height="50" viewBox="0 0 50 50" fill="none" xmlns="http://www.w3.org/2000/svg">
<path d="M39 1H11.0079C8.79365 1 7 2.79395 7 5.00066V38.6729L25 49L43 38.6729V5.00066C43 2.79395 41.2063 1 38.9921 1M28.7619 36.2598C29.254 34.8548 28.9524 33.2355 27.8254 32.1163L24.9921 29.2904L22.1667 32.1163C21.0397 33.2355 20.7381 34.8548 21.2302 36.2598C17.5714 34.7754 14.9921 31.1875 14.9921 26.9964C14.9921 25.1786 15.4841 23.472 16.3413 22.0035L20.1111 15.4706L23.9762 23.0036H26V11.0017H27.4524L33.6587 22.0035C34.5079 23.472 35.0079 25.1786 35.0079 26.9964C35.0079 31.1875 32.4286 34.7754 28.7698 36.2598" fill="#FF9500"/>
</svg>
