<svg width="50" height="50" viewBox="0 0 50 50" fill="none" xmlns="http://www.w3.org/2000/svg">
<path d="M47 26.8194V43.3248C47 45.348 45.3561 46.9927 43.3339 46.9927H26.8367V39.2931L21.3376 37.823V35.9891L26.8367 34.5263V26.8194H31.8993L33.7324 32.3212H40.097L41.9301 26.8194H46.9927H47ZM23.1706 42.1095L17.6715 40.6467V33.18L23.1706 31.7099V26.8267H15.4748L14.0127 21.3248H12.1797L10.7176 26.8267H3.02182V43.3321C3.02182 45.3553 4.66573 47 6.68788 47H23.1852V42.1168L23.1706 42.1095ZM7.89535 23.1588L9.35741 17.657H16.8205L18.2825 23.1588H23.1633V15.4591L28.6624 13.9964V12.1624L23.1633 10.6996V3H6.66606C4.64391 3 3 4.64472 3 6.66788V23.1733H7.88081L7.89535 23.1588Z" fill="#FF9500"/>
</svg>
